<mxfile host="Electron" modified="2024-04-10T07:10:41.962Z" agent="Mozilla/5.0 (Windows NT 10.0; Win64; x64) AppleWebKit/537.36 (KHTML, like Gecko) draw.io/24.1.0 Chrome/120.0.6099.109 Electron/28.1.0 Safari/537.36" etag="rBy-ytpNyRB5rOyNn2ZC" version="24.1.0" type="device">
  <diagram name="Sivu-1" id="APVRRlU2tSEmN3UwnQoQ">
    <mxGraphModel dx="765" dy="565" grid="1" gridSize="10" guides="1" tooltips="1" connect="1" arrows="1" fold="1" page="1" pageScale="1" pageWidth="827" pageHeight="1169" math="0" shadow="0">
      <root>
        <mxCell id="0" />
        <mxCell id="1" parent="0" />
        <mxCell id="cX81UV7L7z6LT-iD5Qa_-1" value="Unconnected" style="shape=process;whiteSpace=wrap;html=1;backgroundOutline=1;" vertex="1" parent="1">
          <mxGeometry x="60" y="450" width="120" height="60" as="geometry" />
        </mxCell>
        <mxCell id="cX81UV7L7z6LT-iD5Qa_-2" value="" style="endArrow=classic;startArrow=classic;html=1;rounded=0;exitX=1;exitY=0.5;exitDx=0;exitDy=0;" edge="1" parent="1">
          <mxGeometry width="50" height="50" relative="1" as="geometry">
            <mxPoint x="180" y="479.71" as="sourcePoint" />
            <mxPoint x="340" y="480" as="targetPoint" />
          </mxGeometry>
        </mxCell>
        <mxCell id="cX81UV7L7z6LT-iD5Qa_-3" value="Connect/disconned from server&lt;div&gt;&lt;br&gt;&lt;/div&gt;" style="edgeLabel;html=1;align=center;verticalAlign=middle;resizable=0;points=[];" vertex="1" connectable="0" parent="cX81UV7L7z6LT-iD5Qa_-2">
          <mxGeometry x="-0.211" y="2" relative="1" as="geometry">
            <mxPoint x="17" y="22" as="offset" />
          </mxGeometry>
        </mxCell>
        <mxCell id="cX81UV7L7z6LT-iD5Qa_-4" value="Connected" style="shape=process;whiteSpace=wrap;html=1;backgroundOutline=1;" vertex="1" parent="1">
          <mxGeometry x="340" y="450" width="120" height="60" as="geometry" />
        </mxCell>
        <mxCell id="cX81UV7L7z6LT-iD5Qa_-5" value="" style="endArrow=classic;startArrow=classic;html=1;rounded=0;exitX=1;exitY=0.5;exitDx=0;exitDy=0;" edge="1" parent="1">
          <mxGeometry width="50" height="50" relative="1" as="geometry">
            <mxPoint x="460" y="479.71" as="sourcePoint" />
            <mxPoint x="620" y="480" as="targetPoint" />
          </mxGeometry>
        </mxCell>
        <mxCell id="cX81UV7L7z6LT-iD5Qa_-6" value="Join/leave a channel/private&lt;div&gt;&lt;br&gt;&lt;/div&gt;" style="edgeLabel;html=1;align=center;verticalAlign=middle;resizable=0;points=[];" vertex="1" connectable="0" parent="cX81UV7L7z6LT-iD5Qa_-5">
          <mxGeometry x="-0.211" y="2" relative="1" as="geometry">
            <mxPoint x="17" y="22" as="offset" />
          </mxGeometry>
        </mxCell>
        <mxCell id="cX81UV7L7z6LT-iD5Qa_-7" value="Joined" style="shape=process;whiteSpace=wrap;html=1;backgroundOutline=1;" vertex="1" parent="1">
          <mxGeometry x="620" y="450" width="120" height="60" as="geometry" />
        </mxCell>
      </root>
    </mxGraphModel>
  </diagram>
</mxfile>
